PathFileType	4	(X/Y/Z)	OpenSim_Sub11_EMGPreOp_Accel.trc
DataRate	CameraRate	NumFrames	NumMarkers	Units	OrigDataRate	OrigDataStartFrame	OrigNumFrames
100	100	39	8	m	100	1	5885
Frame#	Time	torso_imu_offset_imu	pelvis_imu_offset_imu	tibia_r_imu_offset_imu	femur_r_imu_offset_imu	tibia_l_imu_offset_imu	femur_l_imu_offset_imu	toes_r_imu_offset_imu	toes_l_imu_offset_imu
				X1	Y1	Z1	X2	Y2	Z2	X3	Y3	Z3	X4	Y4	Z4	X5	Y5	Z5	X6	Y6	Z6	X7	Y7	Z7	X8		Y8	Z8	

1	0	8.58045718	0.35128060	5.10743120	9.25666577	0.32297892	3.06873769	9.81714908	0.46556520	1.74717191	9.56359353	0.58143651	-2.10385745	9.75856597	-0.34765422	1.12247522	9.61961870	1.48242084	-1.38313093	4.82701072	-0.70259347	8.48677109	5.88872479	0.18250399	7.83611819
2	0.01000000	8.56013071	0.35701269	5.13564265	9.28098940	0.32176926	3.06115476	9.83837719	0.46193945	1.75538977	9.56532899	0.61031785	-2.10426303	9.76952217	-0.37347212	1.18061829	9.62945708	1.46594510	-1.38724917	4.82612205	-0.70664215	8.48823791	5.91903770	0.15068496	7.82108040
3	0.02000000	8.54581309	0.38868251	5.18864220	9.28541742	0.31484388	3.03977216	9.82806751	0.46161658	1.74676067	9.61366912	0.61000145	-2.11403110	9.74568938	-0.38186000	1.14678565	9.61350187	1.50717106	-1.42468526	4.83857753	-0.70915704	8.47911266	5.89565397	0.17217859	7.84409077
4	0.03000000	8.52104573	0.36797096	5.13800481	9.30867767	0.32959193	3.04938213	9.81300910	0.46132680	1.72179073	9.57071745	0.58180919	-2.10364222	9.75391303	-0.40725697	1.17320898	9.60187871	1.49448626	-1.42347685	4.83671838	-0.72126560	8.46210829	5.88947552	0.17101755	7.83604637
5	0.04000000	8.58034431	0.35306597	5.14770193	9.29599004	0.33548391	3.06737985	9.81092316	0.45729342	1.73661868	9.57727993	0.57112837	-2.11437763	9.73361543	-0.37169586	1.14890351	9.61949386	1.50822680	-1.42447297	4.81356484	-0.72433875	8.47085258	5.90246041	0.16266547	7.83997461
6	0.05000000	8.58626761	0.33374607	5.20097444	9.27669514	0.30054501	3.06701597	9.81080301	0.42921501	1.75316142	9.55884944	0.53909363	-2.14351328	9.75945355	-0.36997629	1.14337932	9.60702664	1.50219687	-1.45213612	4.84826893	-0.71313424	8.45605061	5.88845469	0.15138200	7.83028482
7	0.06000000	8.56218348	0.29217750	5.20555029	9.27924041	0.32711124	3.07066912	9.83197088	0.40732378	1.73978685	9.55996802	0.54982779	-2.15319505	9.76402641	-0.38620645	1.15980612	9.61415775	1.49192965	-1.45485772	4.82779272	-0.70257891	8.45716597	5.91107556	0.17382922	7.84655441
8	0.07000000	8.53530258	0.32721663	5.18517342	9.27936723	0.33678493	3.08888545	9.82453024	0.39954897	1.73279924	9.57919775	0.53657189	-2.15511369	9.76075815	-0.34364427	1.11119983	9.60864686	1.48708105	-1.44305689	4.85555219	-0.70108568	8.49093566	5.90368682	0.17505536	7.83202900
9	0.08000000	8.53828432	0.35907328	5.18163140	9.27293748	0.34715208	3.08164946	9.83891341	0.38137737	1.73067946	9.57080622	0.53258524	-2.11914156	9.73597906	-0.39008005	1.12860478	9.61898425	1.49028872	-1.38662291	4.82077666	-0.69762263	8.50212397	5.89012397	0.16922180	7.81240780
10	0.09000000	8.57273659	0.34012294	5.18046344	9.24957086	0.33425694	3.08510349	9.83477693	0.41227121	1.72722078	9.57320063	0.52414400	-2.09919587	9.74789412	-0.36053193	1.14978263	9.56490633	1.47661611	-1.44107377	4.81441877	-0.71109179	8.48629881	5.88917240	0.15288671	7.83049489
11	0.10000000	8.55476865	0.33636954	5.20233498	9.26537472	0.34910950	3.07184239	9.80036799	0.43888412	1.69275736	9.52635513	0.56533198	-2.13101606	9.73075193	-0.37140541	1.14474782	9.61879285	1.48462772	-1.43918258	4.82701831	-0.71383184	8.48223280	5.87552142	0.17472580	7.83769427
12	0.11000000	8.57854053	0.29824408	5.16536830	9.27258260	0.31972625	3.06429748	9.83174666	0.45541455	1.72635179	9.55339674	0.58913789	-2.10939352	9.72958379	-0.38141743	1.14701217	9.57379645	1.49220657	-1.43045825	4.80753637	-0.72173829	8.45954413	5.85944941	0.16893438	7.84120758
13	0.12000000	8.58782233	0.28792522	5.13635112	9.26701774	0.33911132	3.08499121	9.79521414	0.45744622	1.67600839	9.57993970	0.61750276	-2.15178970	9.76993922	-0.38423677	1.15454844	9.58359815	1.49265878	-1.48628946	4.83162288	-0.70271118	8.46047057	5.89269040	0.17280701	7.84154771
14	0.13000000	8.59187975	0.27911393	5.13083950	9.30250689	0.34615216	3.07605793	9.83398672	0.48797451	1.71776239	9.55015746	0.61375507	-2.16471386	9.74768270	-0.39307427	1.15323300	9.61483613	1.48452905	-1.42454488	4.82881376	-0.70901502	8.47675827	5.90696324	0.17155418	7.85590421
15	0.14000000	8.55525222	0.28974259	5.14686556	9.28393370	0.32571180	3.04671372	9.84005178	0.49808776	1.71989697	9.59959961	0.61646949	-2.13278264	9.77364710	-0.37328906	1.15095475	9.60540953	1.45928697	-1.43733232	4.83545319	-0.70287383	8.45251329	5.91347215	0.17983555	7.80919181
16	0.15000000	8.58526725	0.29593281	5.16548691	9.31201091	0.34961061	3.04215370	9.82169325	0.46828984	1.71588920	9.59165678	0.62849871	-2.13095635	9.74974421	-0.38347630	1.13817011	9.63865596	1.48152853	-1.40215199	4.85494451	-0.70941003	8.48551223	5.89024576	0.18635156	7.81681341
17	0.16000000	8.57199475	0.33381709	5.15935152	9.29658674	0.35336532	3.08628204	9.83534794	0.45825310	1.76883751	9.57541639	0.60907758	-2.11421226	9.74376373	-0.38850429	1.16297633	9.61234420	1.47237019	-1.44120523	4.82906989	-0.70155918	8.47654859	5.88055445	0.19521090	7.84404237
18	0.17000000	8.55641947	0.31980448	5.15643450	9.27876183	0.35358696	3.06905039	9.83401690	0.45025599	1.74810965	9.58690180	0.59246983	-2.10712096	9.75251564	-0.36304849	1.17867404	9.60029723	1.49889512	-1.43049630	4.83092084	-0.69972218	8.47625727	5.88562927	0.15849650	7.85698622
19	0.18000000	8.54892747	0.36811039	5.17478509	9.28229405	0.34181257	3.05186390	9.83507606	0.41377517	1.70520979	9.57471423	0.58242904	-2.11131844	9.76107816	-0.35039088	1.16529224	9.63620919	1.52111008	-1.41028143	4.84712415	-0.72909411	8.49492486	5.89886626	0.15177687	7.85636316
20	0.19000000	8.53943718	0.35367890	5.13805803	9.28335840	0.32243562	3.05752932	9.83900483	0.38863274	1.70279428	9.57274518	0.56032410	-2.11861752	9.76328396	-0.35490897	1.16452296	9.60353093	1.54284630	-1.41889421	4.85511216	-0.69852274	8.47362786	5.87385265	0.17232095	7.85757946
21	0.20000000	8.55540698	0.33728749	5.14229238	9.27559022	0.32556958	3.05498056	9.85183814	0.36223537	1.73772247	9.57308202	0.48928372	-2.13370612	9.77627011	-0.37426920	1.15725293	9.63331266	1.55688593	-1.43301532	4.81738608	-0.69344806	8.46362187	5.88176269	0.17585972	7.84065639
22	0.21000000	8.53146768	0.37894365	5.18094694	9.25598387	0.32509794	3.05357533	9.84177792	0.34948365	1.71401647	9.57739993	0.49380665	-2.11545749	9.76560149	-0.34831041	1.15371338	9.59652798	1.54113201	-1.42352694	4.81311022	-0.71750994	8.45371245	5.90268998	0.17382249	7.81312922
23	0.22000000	8.53445476	0.37586928	5.14487519	9.25728625	0.32579426	3.05211039	9.83254190	0.37159638	1.68546643	9.54766448	0.50816391	-2.12389886	9.73680832	-0.32710866	1.15121052	9.59357785	1.52724392	-1.40579921	4.82833124	-0.71785355	8.46527122	5.90486020	0.15880754	7.83580530
24	0.23000000	8.54366128	0.37976782	5.17350834	9.26533966	0.32566244	3.05456773	9.81930201	0.37053069	1.72921673	9.56179688	0.51892135	-2.15877659	9.73234613	-0.35478270	1.16411617	9.59724187	1.53449815	-1.44542764	4.81161276	-0.69452407	8.47716736	5.88789342	0.17311788	7.84190757
25	0.24000000	8.55477100	0.34551159	5.18485308	9.28396469	0.32748916	3.04475302	9.80306027	0.39997540	1.72499000	9.57969753	0.53152542	-2.15777808	9.75217449	-0.31383756	1.13891219	9.60358329	1.53481469	-1.41148278	4.84012235	-0.72053323	8.47548179	5.90583458	0.14746630	7.84323721
26	0.25000000	8.53703795	0.35273904	5.17207353	9.29232819	0.31192021	3.03414426	9.81587637	0.45803025	1.72642543	9.55821458	0.53466759	-2.15051601	9.76726072	-0.35812300	1.13031391	9.60831073	1.51561643	-1.42407692	4.83335849	-0.71826588	8.46455702	5.88789282	0.16572469	7.81206187
27	0.26000000	8.57147646	0.32371923	5.16228004	9.30119576	0.31779589	3.06101118	9.81580035	0.45705944	1.71969839	9.55186523	0.54825816	-2.15022387	9.75439613	-0.35977915	1.14429785	9.59066082	1.51738846	-1.42542590	4.82869320	-0.68710835	8.45453830	5.88865758	0.17552041	7.85841593
28	0.27000000	8.58049042	0.33458686	5.12746854	9.29011527	0.33903151	3.03595150	9.81412876	0.48057613	1.75553873	9.56678238	0.55386519	-2.12633004	9.75622135	-0.37123086	1.14197030	9.61405769	1.49962879	-1.43354108	4.82833077	-0.68840951	8.45122897	5.89959285	0.18103260	7.83209285
29	0.28000000	8.55281180	0.32390641	5.20531544	9.30522042	0.29444886	3.00121830	9.81145018	0.44105392	1.72231580	9.58333264	0.54753975	-2.13414030	9.75847098	-0.39248771	1.15343857	9.61192228	1.53828262	-1.44759660	4.83873333	-0.70730384	8.49611794	5.86505871	0.17340320	7.82334850
30	0.29000000	8.51635923	0.34259678	5.21330869	9.29310005	0.31627961	3.01373557	9.81789837	0.42673291	1.72123116	9.58368625	0.57611776	-2.10679019	9.75803210	-0.36542614	1.18360284	9.60347991	1.52309981	-1.42897994	4.83802572	-0.72580475	8.46291706	5.89333278	0.15246351	7.82608148
31	0.30000000	8.49461017	0.37700705	5.13417344	9.29771645	0.29904314	3.02228209	9.83315093	0.41204794	1.73762731	9.57882007	0.59631333	-2.13047286	9.74769988	-0.34379246	1.17175097	9.62914272	1.52367901	-1.39722143	4.82529942	-0.70992571	8.47448052	5.88649082	0.16213130	7.83150491
32	0.31000000	8.54920050	0.36547680	5.13210042	9.26681712	0.32632182	3.01150605	9.82563029	0.36673352	1.73008534	9.60644375	0.54540731	-2.12737262	9.76235413	-0.31509388	1.14221901	9.60091268	1.58250485	-1.42263091	4.82035196	-0.71067677	8.45734255	5.87221695	0.17686403	7.86590499
33	0.32000000	8.56451121	0.35129026	5.10188272	9.27226000	0.31504648	3.04340991	9.82032997	0.38654838	1.74241618	9.58190349	0.52026142	-2.12607551	9.77075817	-0.32872120	1.15387296	9.60837457	1.55450596	-1.41119815	4.85868893	-0.71044700	8.46810161	5.88264237	0.16407108	7.86523244
34	0.33000000	8.55518962	0.30813796	5.11103386	9.24789606	0.30409777	2.98847987	9.80240678	0.39628775	1.71042386	9.56779670	0.47736437	-2.11132117	9.75022947	-0.35350992	1.15864380	9.62652866	1.57998833	-1.41269481	4.83035085	-0.70366810	8.45838732	5.90745948	0.16241676	7.83703808
35	0.34000000	8.53536728	0.38883270	5.18019867	9.28803281	0.34686300	3.01148130	9.81489632	0.37023581	1.72754350	9.58768724	0.48233484	-2.14028959	9.75519476	-0.35288516	1.17395556	9.60881855	1.57721848	-1.39942591	4.83414631	-0.70575486	8.50239916	5.87359463	0.17328847	7.85103672
36	0.35000000	8.53473939	0.38342686	5.16146614	9.25570914	0.31399340	3.03594043	9.85403067	0.38201197	1.75683563	9.59546490	0.46567165	-2.14274215	9.76462147	-0.36712206	1.14635230	9.62994670	1.57885701	-1.42303008	4.81682378	-0.70704161	8.48180827	5.90439750	0.15613409	7.81712859
37	0.36000000	8.55116655	0.36724456	5.13862034	9.27205480	0.29905054	2.99690509	9.84897069	0.38939840	1.72367121	9.57461287	0.44960827	-2.12546808	9.74874440	-0.33550396	1.18288530	9.59370106	1.55771297	-1.42567785	4.83901123	-0.68364281	8.48654886	5.90396699	0.16766683	7.82077701
38	0.37000000	8.53654420	0.36178712	5.15874769	9.28896090	0.33050974	3.03012843	9.82390370	0.36219173	1.67181104	9.54879813	0.47594704	-2.16504373	9.75291383	-0.30521966	1.13711015	9.59480264	1.54647734	-1.41880191	4.84049906	-0.72461866	8.47327491	5.85472315	0.18005091	7.85038186
39	0.38000000	8.46102014	0.33635536	5.14865804	9.28786635	0.31882149	3.03777344	9.81174273	0.37325354	1.69587425	9.56141962	0.48490441	-2.18873297	9.74508678	-0.30168940	1.16559190	9.59518038	1.57486178	-1.42709300	4.82788281	-0.72274590	8.45924368	5.88227959	0.16869408	7.85599376
